<mxfile host="app.diagrams.net" modified="2024-05-15T01:02:05.095Z" agent="Mozilla/5.0 (Windows NT 10.0; Win64; x64) AppleWebKit/537.36 (KHTML, like Gecko) Chrome/124.0.0.0 Safari/537.36" etag="70pur2w_REBK0wQVUfgA" version="24.4.0" type="github">
  <diagram id="C5RBs43oDa-KdzZeNtuy" name="Page-1">
    <mxGraphModel dx="463" dy="583" grid="1" gridSize="10" guides="1" tooltips="1" connect="1" arrows="1" fold="1" page="1" pageScale="1" pageWidth="827" pageHeight="1169" math="0" shadow="0">
      <root>
        <mxCell id="WIyWlLk6GJQsqaUBKTNV-0" />
        <mxCell id="WIyWlLk6GJQsqaUBKTNV-1" parent="WIyWlLk6GJQsqaUBKTNV-0" />
        <mxCell id="mlGtQh59MupS8Vz3Rkjs-22" value="" style="rounded=0;html=1;jettySize=auto;orthogonalLoop=1;fontSize=11;endArrow=block;endFill=0;endSize=8;strokeWidth=1;shadow=0;labelBackgroundColor=none;edgeStyle=orthogonalEdgeStyle;" edge="1" parent="WIyWlLk6GJQsqaUBKTNV-1" source="mlGtQh59MupS8Vz3Rkjs-24" target="mlGtQh59MupS8Vz3Rkjs-26">
          <mxGeometry relative="1" as="geometry" />
        </mxCell>
        <mxCell id="mlGtQh59MupS8Vz3Rkjs-24" value="ProgramaFidelidade" style="rounded=1;whiteSpace=wrap;html=1;fontSize=12;glass=0;strokeWidth=1;shadow=0;" vertex="1" parent="WIyWlLk6GJQsqaUBKTNV-1">
          <mxGeometry x="1000" y="100" width="120" height="40" as="geometry" />
        </mxCell>
        <mxCell id="mlGtQh59MupS8Vz3Rkjs-25" value="" style="edgeStyle=orthogonalEdgeStyle;rounded=0;html=1;jettySize=auto;orthogonalLoop=1;fontSize=11;endArrow=block;endFill=0;endSize=8;strokeWidth=1;shadow=0;labelBackgroundColor=none;entryX=0.004;entryY=0.538;entryDx=0;entryDy=0;entryPerimeter=0;" edge="1" parent="WIyWlLk6GJQsqaUBKTNV-1" source="mlGtQh59MupS8Vz3Rkjs-26" target="mlGtQh59MupS8Vz3Rkjs-30">
          <mxGeometry y="10" relative="1" as="geometry">
            <mxPoint as="offset" />
            <mxPoint x="1238" y="245" as="targetPoint" />
          </mxGeometry>
        </mxCell>
        <mxCell id="mlGtQh59MupS8Vz3Rkjs-33" style="edgeStyle=orthogonalEdgeStyle;rounded=0;orthogonalLoop=1;jettySize=auto;html=1;" edge="1" parent="WIyWlLk6GJQsqaUBKTNV-1" source="mlGtQh59MupS8Vz3Rkjs-26" target="mlGtQh59MupS8Vz3Rkjs-28">
          <mxGeometry relative="1" as="geometry" />
        </mxCell>
        <mxCell id="mlGtQh59MupS8Vz3Rkjs-26" value="Verifica se Cliente tem programa fidelidade" style="rhombus;whiteSpace=wrap;html=1;shadow=0;fontFamily=Helvetica;fontSize=12;align=center;strokeWidth=1;spacing=6;spacingTop=-4;" vertex="1" parent="WIyWlLk6GJQsqaUBKTNV-1">
          <mxGeometry x="982.5" y="170" width="155" height="150" as="geometry" />
        </mxCell>
        <mxCell id="mlGtQh59MupS8Vz3Rkjs-28" value="Salva na tabela cliente o tipo de fidelidade&amp;nbsp;" style="rounded=1;whiteSpace=wrap;html=1;fontSize=12;glass=0;strokeWidth=1;shadow=0;" vertex="1" parent="WIyWlLk6GJQsqaUBKTNV-1">
          <mxGeometry x="1000" y="352.5" width="120" height="50" as="geometry" />
        </mxCell>
        <mxCell id="mlGtQh59MupS8Vz3Rkjs-29" value="Sim" style="text;html=1;align=center;verticalAlign=middle;resizable=0;points=[];autosize=1;strokeColor=none;fillColor=none;" vertex="1" parent="WIyWlLk6GJQsqaUBKTNV-1">
          <mxGeometry x="1170" y="215" width="40" height="30" as="geometry" />
        </mxCell>
        <mxCell id="mlGtQh59MupS8Vz3Rkjs-30" value="Retorna mensagem cliente ja possui o programa fidelidade" style="rounded=1;whiteSpace=wrap;html=1;fontSize=12;glass=0;strokeWidth=1;shadow=0;" vertex="1" parent="WIyWlLk6GJQsqaUBKTNV-1">
          <mxGeometry x="1230" y="215" width="120" height="57.5" as="geometry" />
        </mxCell>
        <mxCell id="mlGtQh59MupS8Vz3Rkjs-31" value="" style="endArrow=classic;html=1;rounded=0;exitX=1;exitY=0.5;exitDx=0;exitDy=0;entryX=0;entryY=0.5;entryDx=0;entryDy=0;" edge="1" parent="WIyWlLk6GJQsqaUBKTNV-1" source="mlGtQh59MupS8Vz3Rkjs-28" target="mlGtQh59MupS8Vz3Rkjs-32">
          <mxGeometry width="50" height="50" relative="1" as="geometry">
            <mxPoint x="1160" y="430" as="sourcePoint" />
            <mxPoint x="1210" y="380" as="targetPoint" />
          </mxGeometry>
        </mxCell>
        <mxCell id="mlGtQh59MupS8Vz3Rkjs-32" value="Envia por email mensagem de cadastro feito com sucesso&amp;nbsp;" style="rounded=1;whiteSpace=wrap;html=1;fontSize=12;glass=0;strokeWidth=1;shadow=0;" vertex="1" parent="WIyWlLk6GJQsqaUBKTNV-1">
          <mxGeometry x="1210" y="348.75" width="120" height="57.5" as="geometry" />
        </mxCell>
      </root>
    </mxGraphModel>
  </diagram>
</mxfile>
